<svg id="Capa_1" enable-background="new 0 0 509.384 509.384" height="512" viewBox="0 0 509.384 509.384" width="512" xmlns="http://www.w3.org/2000/svg"><g id="XMLID_788_"><path id="XMLID_791_" d="m224.692 111.937v68.047c-15.729 0-29.272 0-45 0v60h45v162.343c-54.007-9.733-118.637-49.179-118.637-102.343-10.963-10.485-20.4-19.514-31.363-30-10.499 10.5-19.501 19.502-30 30 0 69.979 54.099 124.561 120.144 149.162 58.684 21.859 85.203 56.313 89.793 60.238.008-.009.055-.06.063-.068l20-284.658-20-224.658c-16.566.001-31.565 6.712-42.424 17.565-27.929 27.915-21.685 74.633 12.424 94.372z" fill="#9cf"/><path id="XMLID_794_" d="m428.288 392.854c22.973-26.453 36.404-58.429 36.404-92.871-10.499-10.498-19.501-19.5-30-30-10.963 10.486-20.401 19.515-31.363 30 0 53.114-64.441 92.575-118.637 102.343 0-19.712 0-142.56 0-162.343h45c0-7.258 0-52.692 0-60-15.729 0-29.272 0-45 0 0-18.5 0-57.244 0-68.047 53.848-31.161 29.763-111.936-30-111.936v509.315c67.162-73.302 114.349-48.238 173.596-116.461z" fill="#80aaff"/></g></svg>